# xmcd CD database file
#
# Track frame offsets:
#	150
#	33340
#	59445
#	81295
#	120562
#	145927
#	161747
#	180577
#	213560
#	242847
#
# Disc length: 3841 seconds
#
# Revision: 2
# Processed by: cddbd v1.5.2PL0 Copyright (c) Steve Scherf et al.
# Submitted via: CDex 1.51
#
DISCID=8c0eff0a
DTITLE=Otis Rush - Live In Japan 1986 With Break Down
DYEAR=1900
DGENRE=Blues
TTITLE0=Introduction - Tops
TTITLE1=All Your Love
TTITLE2=Please, Please, Please
TTITLE3=Killing Floor
TTITLE4=Stand By Me
TTITLE5=Lonely Man
TTITLE6=Double Trouble
TTITLE7=Right Place, Wrong Time
TTITLE8=Got My Mojo Working
TTITLE9=Gambler's Blues (encore)
EXTD=
EXTT0=
EXTT1=
EXTT2=
EXTT3=
EXTT4=
EXTT5=
EXTT6=
EXTT7=
EXTT8=
EXTT9=
PLAYORDER=
